<svg xmlns="http://www.w3.org/2000/svg" viewBox="0 0 332.2 188.4"><defs><style>.a{fill:none;stroke:#c6c6c5;stroke-miterlimit:10;stroke-width:2px;}</style></defs><path class="a" d="M186.8,295.5c-.3-24.3,9.4-48.2,24.6-67.2s35.8-33.2,58-43.2a103,103,0,0,1,19.3-6.8,91.2,91.2,0,0,1,18-2.1c33.2-.9,66.7,10.1,92.3,31.4s42.6,52.6,45.5,85.7" transform="translate(-149.3 -175.2)"/><path class="a" d="M187.3,283.3l-8.3,3.9c-.8,2.1.4,4.4,2.1,5.8s4,1.8,6.1,2.3c44.8,10.2,91.1,10.4,137,10.5,41.6.1,84.1.1,123.5-13.3a5.3,5.3,0,0,0,2.3-1.3c1.4-1.4.9-4-.6-5.4a11.6,11.6,0,0,0-5.7-2.4" transform="translate(-149.3 -175.2)"/><path class="a" d="M188.1,276.2a56.7,56.7,0,0,0-35.1,9.2,5.9,5.9,0,0,0-2.5,2.7c-.7,2,.9,4.1,2.5,5.6l22.1,22.5c4.1,4.1,8.3,8.4,13.5,11.1s10,3.4,15.2,4.3a703.4,703.4,0,0,0,209.4,4.7c10.9-1.4,22-3.2,31.3-8.8,6.9-4.2,12.4-10.2,17.8-16.1l15.2-16.5a10,10,0,0,0,2.8-4.3c1.4-5.2-4.9-8.9-10.1-10.3a148.8,148.8,0,0,0-28.1-4.8" transform="translate(-149.3 -175.2)"/><path class="a" d="M216.9,333c1.7,5.4,6.1,9.7,11,12.6s10.5,4.3,16,5.9c12.5,3.5,25,6.9,37.8,8.9,25,3.8,50.4,1.9,75.6-.1,5.5-.5,11.1-.9,16.5-2.5s9.3-3.5,13.9-5.2,10.5-3.3,15.5-5.7,9.5-6.1,11.8-11.1" transform="translate(-149.3 -175.2)"/></svg>